HIERARCHY
ROOT Hips
{
	OFFSET 0.000000 0.000000 0.000000
	CHANNELS 6 Xposition Yposition Zposition Yrotation Xrotation Zrotation
	JOINT Chest
	{
		OFFSET 0.000000 -0.009281 11.569106
		CHANNELS 3 Yrotation Xrotation Zrotation
		JOINT Chest2
		{
			OFFSET -0.000000 0.016865 9.269641
			CHANNELS 3 Yrotation Xrotation Zrotation
			JOINT Chest3
			{
				OFFSET -0.000000 0.000001 8.374491
				CHANNELS 3 Yrotation Xrotation Zrotation
				JOINT Chest4
				{
					OFFSET -0.000000 0.000001 8.374493
					CHANNELS 3 Yrotation Xrotation Zrotation
					JOINT Neck
					{
						OFFSET -0.000000 0.000002 12.152554
						CHANNELS 3 Yrotation Xrotation Zrotation
						JOINT Head
						{
							OFFSET -0.000000 0.040101 7.802319
							CHANNELS 3 Yrotation Xrotation Zrotation
							End Site
							{
								OFFSET -0.000000 0.020947 14.853096
							}
						}
					}
					JOINT RightCollar
					{
						OFFSET 2.894404 0.000001 6.791374
						CHANNELS 3 Yrotation Xrotation Zrotation
						JOINT RightShoulder
						{
							OFFSET 13.574684 0.000001 0.000000
							CHANNELS 3 Yrotation Xrotation Zrotation
							JOINT RightElbow
							{
								OFFSET 23.923903 0.000002 0.000000
								CHANNELS 3 Yrotation Xrotation Zrotation
								JOINT RightWrist
								{
									OFFSET 19.846718 0.012767 0.000000
									CHANNELS 3 Yrotation Xrotation Zrotation
									End Site
									{
										OFFSET 14.973145 0.000001 0.000000
									}
								}
							}
						}
					}
					JOINT LeftCollar
					{
						OFFSET -2.894404 0.000001 6.791374
						CHANNELS 3 Yrotation Xrotation Zrotation
						JOINT LeftShoulder
						{
							OFFSET -13.574684 -0.000001 0.000000
							CHANNELS 3 Yrotation Xrotation Zrotation
							JOINT LeftElbow
							{
								OFFSET -23.923903 -0.000002 0.000000
								CHANNELS 3 Yrotation Xrotation Zrotation
								JOINT LeftWrist
								{
									OFFSET -19.846718 0.012763 0.000000
									CHANNELS 3 Yrotation Xrotation Zrotation
									End Site
									{
										OFFSET -14.973145 -0.000001 0.000000
									}
								}
							}
						}
					}
				}
			}
		}
	}
	JOINT RightHip
	{
		OFFSET 9.469263 0.004643 0.045487
		CHANNELS 3 Yrotation Xrotation Zrotation
		JOINT RightKnee
		{
			OFFSET 0.000000 0.002661 -40.478676
			CHANNELS 3 Yrotation Xrotation Zrotation
			JOINT RightAnkle
			{
				OFFSET 0.000000 0.049106 -35.224068
				CHANNELS 3 Yrotation Xrotation Zrotation
				JOINT RightToe
				{
					OFFSET -0.000001 12.539529 -6.151390
					CHANNELS 3 Yrotation Xrotation Zrotation
					End Site
					{
						OFFSET -0.000001 5.044994 -1.291870
					}
				}
			}
		}
	}
	JOINT LeftHip
	{
		OFFSET -9.469263 0.004641 0.045487
		CHANNELS 3 Yrotation Xrotation Zrotation
		JOINT LeftKnee
		{
			OFFSET 0.000000 0.002661 -40.478676
			CHANNELS 3 Yrotation Xrotation Zrotation
			JOINT LeftAnkle
			{
				OFFSET 0.000000 0.049106 -35.224068
				CHANNELS 3 Yrotation Xrotation Zrotation
				JOINT LeftToe
				{
					OFFSET -0.000001 12.539529 -6.151390
					CHANNELS 3 Yrotation Xrotation Zrotation
					End Site
					{
						OFFSET -0.000001 5.044994 -1.291870
					}
				}
			}
		}
	}
}
MOTION
Frames: 15
Frame Time: 0.016667
14.051682 9.917581 83.394722 -0.809991 -0.941136 -96.422976 -0.937346 -2.197550 -0.444834 -0.469239 -0.940252 -0.309772 -0.469239 -0.940252 -0.309771 -0.352398 -0.704952 -0.233045 4.087131 -16.483226 -8.463278 4.577816 5.573275 -14.252026 8.631468 4.585649 -0.498689 47.096989 -17.610174 -13.567689 22.960740 -38.078342 43.688567 -27.281949 39.139610 66.998528 -7.589086 5.106417 -3.224388 -43.835673 -7.654853 14.164979 -41.685495 -55.848179 -18.292659 16.790080 16.045052 -57.476629 3.024634 -3.147071 -20.870831 8.675749 -18.255771 -11.222143 13.432883 1.768171 19.713412 -11.240929 -0.846982 -1.565014 -8.535459 1.901723 -6.318205 -3.977925 -2.134150 7.106171 6.449934 -7.269935 3.775299 4.529550 4.886300 0.225469 
13.732689 10.006700 83.409027 -0.685944 -0.911994 -96.426329 -0.961183 -2.216319 -0.423930 -0.474542 -0.953208 -0.296689 -0.474542 -0.953208 -0.296689 -0.356362 -0.714677 -0.223251 4.109088 -16.476204 -8.455170 4.620725 5.588394 -14.229327 8.679195 4.650352 -0.468284 47.054799 -17.691858 -13.590735 23.080691 -38.077850 43.704451 -27.317888 39.179874 66.991281 -7.560721 5.155621 -3.233344 -43.856402 -7.619386 14.152389 -41.654247 -55.879393 -18.340962 16.786933 15.995965 -57.465120 3.384849 -3.293447 -21.014259 8.192583 -17.148846 -10.626234 13.389214 2.076875 19.484575 -8.540991 -1.579769 -1.266281 -8.593134 2.258493 -6.401945 -3.963738 -2.032818 7.236289 6.493481 -7.845791 3.721423 4.855516 5.437376 0.235540 
13.407801 10.103527 83.419060 -0.537441 -0.873661 -96.422334 -0.990238 -2.230961 -0.400321 -0.484349 -0.965156 -0.285879 -0.484349 -0.965157 -0.285878 -0.363706 -0.723641 -0.215169 4.139170 -16.458200 -8.447192 4.677745 5.624489 -14.204283 8.718146 4.693463 -0.461798 47.036839 -17.774143 -13.591154 23.196376 -38.060365 43.733298 -27.369550 39.194098 66.963175 -7.514613 5.168898 -3.240868 -43.871664 -7.554923 14.115962 -41.583530 -55.908186 -18.431361 16.776019 15.939278 -57.476786 3.714852 -3.376787 -21.148689 7.783499 -16.108011 -10.210410 13.279307 2.341834 19.313220 -6.401228 -2.067641 -1.041946 -8.652434 2.655641 -6.582072 -3.978607 -1.938358 7.435976 6.564260 -8.450857 3.658387 5.107484 5.988258 0.249220 
13.077520 10.229016 83.426491 -0.367538 -0.788950 -96.356969 -1.059407 -2.235801 -0.423314 -0.496554 -0.973972 -0.277256 -0.496554 -0.973972 -0.277256 -0.372849 -0.730255 -0.208729 4.174317 -16.435590 -8.443201 4.742387 5.669359 -14.184927 8.750103 4.732729 -0.457284 47.054823 -17.793126 -13.613401 23.262038 -38.061639 43.782599 -27.401071 39.167979 66.925943 -7.478401 5.173581 -3.266188 -43.856600 -7.525058 14.085696 -41.489759 -55.929568 -18.567558 16.755883 15.918000 -57.507345 3.931574 -3.379403 -21.306779 7.481405 -15.182621 -10.052709 13.188820 2.590668 19.190470 -4.750700 -2.379378 -0.891644 -8.778468 3.090365 -6.924994 -3.983823 -1.853011 7.811249 6.631227 -9.098715 3.497320 5.329113 6.567460 0.284645 
12.744587 10.375183 83.432396 -0.185103 -0.702741 -96.305558 -1.121308 -2.238022 -0.418372 -0.509243 -0.976679 -0.267195 -0.509243 -0.976679 -0.267195 -0.382351 -0.732288 -0.201205 4.213226 -16.411660 -8.448801 4.810530 5.716587 -14.182049 8.780027 4.787832 -0.450119 47.086757 -17.759516 -13.678296 23.293534 -38.085493 43.846174 -27.424343 39.121391 66.881130 -7.460114 5.196125 -3.296849 -43.820277 -7.558018 14.067858 -41.409832 -55.931903 -18.696658 16.724608 15.931288 -57.555566 4.085728 -3.318770 -21.451749 7.231571 -14.379327 -10.005694 13.096686 2.818039 19.170244 -3.472710 -2.557944 -0.800249 -8.926784 3.573318 -7.339777 -3.984919 -1.802378 8.363106 6.698624 -9.784144 3.297227 5.527856 7.196277 0.320724 
12.401169 10.543897 83.436684 0.019475 -0.606934 -96.225658 -1.175387 -2.225478 -0.432562 -0.521167 -0.974669 -0.258287 -0.521167 -0.974670 -0.258287 -0.391279 -0.730783 -0.194542 4.248444 -16.390793 -8.457737 4.870923 5.757714 -14.186580 8.806796 4.841119 -0.430959 47.120826 -17.689703 -13.768928 23.310090 -38.125310 43.911249 -27.438618 39.076414 66.842752 -7.451787 5.229604 -3.314662 -43.776800 -7.612983 14.048563 -41.368885 -55.927798 -18.790035 16.683768 15.951377 -57.609961 4.195015 -3.184605 -21.561131 7.030774 -13.665281 -9.983939 12.985152 3.070817 19.067472 -2.476328 -2.653482 -0.726110 -9.090581 4.112584 -7.762967 -4.000498 -1.784522 8.940901 6.767580 -10.524458 3.044736 5.720179 7.876690 0.363067 
12.040485 10.719809 83.439270 0.225672 -0.514313 -96.128526 -1.211603 -2.209061 -0.459736 -0.534274 -0.975200 -0.249596 -0.534274 -0.975200 -0.249597 -0.401094 -0.731183 -0.188045 4.278560 -16.370761 -8.465552 4.922340 5.796919 -14.190836 8.829806 4.886248 -0.423363 47.159188 -17.633935 -13.849080 23.321041 -38.165984 43.982030 -27.451198 39.050872 66.818067 -7.438040 5.259114 -3.319281 -43.731399 -7.655085 14.024098 -41.355173 -55.931671 -18.872166 16.659962 15.944674 -57.650055 4.268512 -2.979635 -21.534080 6.885348 -13.047913 -9.993356 12.802787 3.312942 18.910526 -1.679771 -2.659029 -0.642211 -9.254746 4.682312 -8.114085 -4.028384 -1.801963 9.539303 6.819381 -11.282290 2.730331 5.934366 8.591223 0.432595 
11.659602 10.897174 83.439247 0.430843 -0.428680 -96.081671 -1.232296 -2.196613 -0.439259 -0.547024 -0.978411 -0.241256 -0.547024 -0.978412 -0.241256 -0.410645 -0.733594 -0.181814 4.298139 -16.346593 -8.467375 4.956035 5.843168 -14.187841 8.846838 4.900658 -0.417643 47.200019 -17.607756 -13.894580 23.328294 -38.187724 44.072793 -27.476244 39.050408 66.800821 -7.422100 5.276090 -3.316775 -43.681502 -7.663745 14.004278 -41.330441 -55.955102 -18.983459 16.653422 15.908597 -57.660710 4.310277 -2.696061 -21.282890 6.787456 -12.550494 -10.074899 12.551786 3.544403 18.785035 -1.039771 -2.598704 -0.571033 -9.398586 5.277554 -8.295574 -4.065771 -1.839081 10.045298 6.859150 -12.040229 2.417389 6.150196 9.290800 0.495073 
11.258901 11.077749 83.434998 0.640399 -0.350891 -96.074827 -1.241927 -2.186175 -0.378640 -0.557500 -0.985654 -0.233697 -0.557500 -0.985654 -0.233698 -0.418491 -0.739028 -0.176168 4.309798 -16.316282 -8.462404 4.976975 5.900386 -14.175229 8.862123 4.896239 -0.407775 47.229177 -17.613053 -13.909558 23.351554 -38.177223 44.176864 -27.505694 39.058413 66.789681 -7.392512 5.275695 -3.311993 -43.642498 -7.623148 13.978418 -41.296437 -56.001022 -19.105841 16.649831 15.851962 -57.643040 4.323178 -2.341372 -20.878725 6.761261 -12.155837 -10.209808 12.229537 3.834206 18.466157 -0.515258 -2.513464 -0.529984 -9.526919 5.902849 -8.331285 -4.111527 -1.905517 10.394969 6.880057 -12.771628 2.158606 6.369822 9.917551 0.562558 
10.829854 11.251223 83.425728 0.858515 -0.286855 -96.028232 -1.231412 -2.174498 -0.350300 -0.566219 -0.994660 -0.232056 -0.566219 -0.994660 -0.232056 -0.425031 -0.745782 -0.174959 4.320431 -16.284383 -8.449432 4.998731 5.960743 -14.148160 8.874551 4.904683 -0.388244 47.252488 -17.651487 -13.924818 23.368468 -38.142495 44.296625 -27.534120 39.061944 66.776055 -7.357593 5.285228 -3.300176 -43.620518 -7.573234 13.953716 -41.271807 -56.056059 -19.199658 16.646759 15.788906 -57.621313 4.328351 -1.929433 -20.486855 6.800035 -11.812440 -10.287710 11.664312 4.100309 18.036057 0.008856 -2.365982 -0.462818 -9.648254 6.560682 -8.352703 -4.152549 -2.003743 10.660472 6.896373 -13.499516 1.938773 6.575389 10.497424 0.621199 
10.375987 11.419279 83.411942 1.088114 -0.233881 -95.987394 -1.206181 -2.150799 -0.301471 -0.575079 -1.002001 -0.236804 -0.575079 -1.002001 -0.236804 -0.431687 -0.751280 -0.178541 4.337200 -16.260551 -8.434521 5.033209 6.006725 -14.115042 8.881130 4.927809 -0.384309 47.268365 -17.698069 -13.938726 23.368034 -38.103713 44.417605 -27.553801 39.042779 66.762053 -7.331673 5.309660 -3.302488 -43.601260 -7.535155 13.947526 -41.280137 -56.116093 -19.245610 16.647437 15.735890 -57.611539 4.345182 -1.473584 -20.142429 6.846091 -11.502968 -10.336218 10.870279 4.290412 17.769287 0.537332 -2.176341 -0.421253 -9.764502 7.255652 -8.355068 -4.191441 -2.124316 10.909507 6.921797 -14.197586 1.756200 6.762458 11.018047 0.668798 
9.926458 11.595329 83.391426 1.255568 -0.161435 -95.882209 -1.201777 -2.171906 -0.309994 -0.586016 -1.006569 -0.249615 -0.586016 -1.006569 -0.249616 -0.439912 -0.754688 -0.188172 4.364217 -16.254781 -8.417971 5.088707 6.020122 -14.074680 8.881076 4.944756 -0.389970 47.280574 -17.712253 -13.946894 23.346440 -38.095045 44.513367 -27.556497 39.007651 66.757231 -7.325361 5.321703 -3.317121 -43.566433 -7.517593 13.960221 -41.323539 -56.167238 -19.272103 16.636645 15.720082 -57.620903 4.388794 -1.063516 -19.970157 6.847804 -11.196836 -10.423454 9.934788 4.513932 17.363854 1.057965 -2.012406 -0.382564 -9.929498 7.883683 -8.392228 -4.223958 -2.249401 11.143411 6.971511 -14.893776 1.587642 6.928173 11.516858 0.704226 
9.481114 11.762432 83.361732 1.390161 -0.080016 -95.740257 -1.205735 -2.210303 -0.348402 -0.603597 -1.011550 -0.264311 -0.603597 -1.011550 -0.264310 -0.453124 -0.758403 -0.199226 4.405189 -16.255563 -8.408969 5.167906 6.022195 -14.043126 8.876855 4.942780 -0.410360 47.289542 -17.671072 -13.927615 23.322799 -38.123971 44.573169 -27.548508 38.956192 66.758050 -7.314730 5.308966 -3.332150 -43.518161 -7.535785 13.964966 -41.430964 -56.188995 -19.275924 16.631483 15.734205 -57.661994 4.470812 -0.678317 -19.908179 6.783559 -10.901783 -10.492858 8.874374 4.783804 16.864529 1.575880 -1.887389 -0.312822 -10.108180 8.475921 -8.465416 -4.265636 -2.379898 11.362358 7.030335 -15.560238 1.434845 7.081470 11.970145 0.725870 
9.029636 11.927781 83.320190 1.537900 0.013161 -95.641691 -1.217371 -2.224566 -0.351066 -0.628402 -1.018018 -0.277571 -0.628402 -1.018018 -0.277570 -0.471752 -0.763229 -0.209219 4.453358 -16.254788 -8.406955 5.257845 6.027427 -14.022016 8.874110 4.960462 -0.433277 47.307526 -17.638047 -13.909356 23.288717 -38.169956 44.613816 -27.538879 38.907449 66.764826 -7.305910 5.304828 -3.348036 -43.458766 -7.570721 13.981709 -41.572274 -56.197325 -19.273530 16.631256 15.757706 -57.715843 4.543114 -0.254632 -19.766291 6.727758 -10.646978 -10.439586 7.709499 5.092325 16.247649 2.040455 -1.794562 -0.264412 -10.309131 9.099765 -8.539266 -4.286316 -2.542909 11.544693 7.057895 -16.162174 1.378630 7.226047 12.358403 0.724145 
8.567463 12.097391 83.263321 1.678174 0.125492 -95.540468 -1.242763 -2.238352 -0.371992 -0.655289 -1.027113 -0.288177 -0.655290 -1.027113 -0.288177 -0.491939 -0.770027 -0.217230 4.497760 -16.246676 -8.410622 5.338234 6.045724 -14.012982 8.862710 4.988345 -0.445245 47.337736 -17.637808 -13.889996 23.247910 -38.212344 44.650685 -27.534145 38.869176 66.773972 -7.306105 5.326278 -3.355213 -43.401857 -7.594224 14.011284 -41.699756 -56.221783 -19.274517 16.631664 15.777710 -57.777704 4.567371 0.205525 -19.562690 6.705992 -10.463638 -10.316532 6.519136 5.401813 15.516067 2.405109 -1.716932 -0.188487 -10.548135 9.738354 -8.715775 -4.286275 -2.756245 11.701919 7.025788 -16.687481 1.423480 7.377521 12.670872 0.713206 
